<svg width="93" height="86" viewBox="0 0 93 86" fill="none" xmlns="http://www.w3.org/2000/svg">
<path d="M15.2808 66.9517V81.6648H13.7884V69.8942L8.00818 79.7941H7.27257L1.49239 69.9573V81.6648H0V66.9517H1.28218L7.67195 77.8603L13.9986 66.9517H15.2808ZM28.2308 76.5993H18.9824C19.0666 77.7483 19.5079 78.6766 20.3066 79.3842C21.1053 80.0919 22.1142 80.4458 23.3333 80.4458C24.0199 80.4458 24.6505 80.323 25.2251 80.0779C25.7996 79.8327 26.297 79.4719 26.7173 78.9954L27.5582 79.9623C27.0677 80.5509 26.4546 80.9992 25.719 81.3075C24.9833 81.6158 24.1741 81.7699 23.2913 81.7699C22.1563 81.7699 21.1509 81.5282 20.2751 81.0448C19.3993 80.5613 18.7162 79.8922 18.2257 79.0374C17.7353 78.1827 17.4901 77.2158 17.4901 76.1368C17.4901 75.0579 17.7248 74.0911 18.1942 73.2362C18.6636 72.3814 19.3083 71.7159 20.1279 71.2394C20.9477 70.763 21.8691 70.5249 22.8919 70.5249C23.9148 70.5249 24.8327 70.763 25.6454 71.2394C26.4581 71.7159 27.0957 72.378 27.5582 73.2257C28.0206 74.0735 28.2517 75.0439 28.2517 76.1368L28.2308 76.5993ZM22.8919 71.8069C21.827 71.8069 20.9337 72.1467 20.212 72.8264C19.4904 73.506 19.0805 74.3922 18.9824 75.4853H26.8224C26.7243 74.3922 26.3145 73.506 25.5928 72.8264C24.8712 72.1467 23.9709 71.8069 22.8919 71.8069ZM33.698 70.5249C35.1413 70.5249 36.2483 70.8856 37.019 71.6073C37.7897 72.3289 38.1751 73.3974 38.1751 74.8126V81.6648H36.7458V79.9413C36.4094 80.5158 35.9156 80.9641 35.264 81.2865C34.6123 81.6088 33.8382 81.7699 32.9413 81.7699C31.7083 81.7699 30.7274 81.4756 29.9988 80.8871C29.27 80.2986 28.9057 79.5208 28.9057 78.554C28.9057 77.6152 29.2456 76.8585 29.9252 76.284C30.6048 75.7095 31.6872 75.4222 33.1726 75.4222H36.6827V74.7496C36.6827 73.7968 36.4165 73.0716 35.884 72.5742C35.3515 72.0767 34.5738 71.828 33.5509 71.828C32.8503 71.828 32.1777 71.9435 31.5331 72.1748C30.8885 72.4061 30.335 72.7248 29.8726 73.1312L29.2 72.0171C29.7605 71.5407 30.4331 71.1729 31.2178 70.9137C32.0025 70.6545 32.8292 70.5249 33.698 70.5249ZM33.1726 80.5928C34.0133 80.5928 34.735 80.4002 35.3375 80.0149C35.9401 79.6295 36.3884 79.0725 36.6827 78.3438V76.5362H33.2146C31.3229 76.5362 30.3771 77.1947 30.3771 78.512C30.3771 79.1565 30.6223 79.6645 31.1127 80.0358C31.6032 80.4072 32.2898 80.5928 33.1726 80.5928ZM41.0779 66.0688H42.5703V81.6648H41.0779V66.0688ZM48.1006 70.2515H43.5816V66.9517H56.7603V70.2515H52.2623V81.6648H48.1006V70.2515ZM60.4184 71.6388C60.8248 71.1203 61.3538 70.7315 62.0053 70.4723C62.657 70.213 63.4031 70.0834 64.2439 70.0834V73.6777C63.8795 73.6356 63.5782 73.6145 63.3401 73.6145C62.4853 73.6145 61.8162 73.8458 61.3328 74.3082C60.8493 74.7707 60.6076 75.4782 60.6076 76.4311V81.6648H56.6141V70.2726H60.4184V71.6388ZM64.6021 70.2726H68.5956V81.6648H64.6021V70.2726ZM66.5988 69.0114C65.8702 69.0114 65.2817 68.8082 64.8332 68.402C64.3848 67.9956 64.1606 67.4911 64.1606 66.8885C64.1606 66.2861 64.3848 65.7816 64.8332 65.3752C65.2817 64.9688 65.8702 64.7656 66.5988 64.7656C67.3274 64.7656 67.9159 64.9584 68.3644 65.3437C68.8128 65.729 69.037 66.2229 69.037 66.8255C69.037 67.456 68.8128 67.978 68.3644 68.3914C67.9159 68.8048 67.3274 69.0114 66.5988 69.0114ZM77.067 70.0834C78.104 70.0834 79.0462 70.3251 79.8941 70.8086C80.7418 71.292 81.4144 71.9786 81.9119 72.8685C82.4092 73.7583 82.658 74.7916 82.658 75.9687C82.658 77.1458 82.4092 78.1792 81.9119 79.0689C81.4144 79.9588 80.7418 80.6454 79.8941 81.1288C79.0462 81.6123 78.104 81.854 77.067 81.854C75.7358 81.854 74.6778 81.4546 73.8931 80.6558V85.7425H69.8996V70.2726H73.704V71.4076C74.4467 70.5249 75.5677 70.0834 77.067 70.0834ZM76.2262 78.6801C76.9269 78.6801 77.5014 78.4384 77.9498 77.955C78.3983 77.4715 78.6224 76.8094 78.6224 75.9687C78.6224 75.128 78.3983 74.4658 77.9498 73.9824C77.5014 73.499 76.9269 73.2572 76.2262 73.2572C75.5256 73.2572 74.9511 73.499 74.5027 73.9824C74.0544 74.4658 73.8301 75.128 73.8301 75.9687C73.8301 76.8094 74.0544 77.4715 74.5027 77.955C74.9511 78.4384 75.5256 78.6801 76.2262 78.6801ZM87.367 81.854C86.4142 81.854 85.4752 81.7454 84.5505 81.5282C83.6257 81.311 82.8829 81.0273 82.3224 80.6769L83.5206 77.9445C84.039 78.2667 84.6556 78.5225 85.3701 78.7116C86.0848 78.9008 86.7925 78.9954 87.493 78.9954C88.1377 78.9954 88.5966 78.9289 88.8699 78.7957C89.1431 78.6627 89.2797 78.4699 89.2797 78.2177C89.2797 77.9654 89.115 77.7869 88.7858 77.6818C88.4565 77.5767 87.9345 77.475 87.2198 77.3769C86.3091 77.2649 85.5348 77.1177 84.8973 76.9356C84.2596 76.7534 83.7097 76.417 83.2472 75.9267C82.7848 75.4363 82.5537 74.7496 82.5537 73.8668C82.5537 73.1381 82.7708 72.4901 83.2053 71.9226C83.6396 71.355 84.2737 70.9066 85.1075 70.5773C85.9412 70.2481 86.9396 70.0834 88.1026 70.0834C88.9294 70.0834 89.7491 70.1675 90.5619 70.3357C91.3745 70.5038 92.0542 70.742 92.6006 71.0503L91.4026 73.7617C90.3937 73.2012 89.3008 72.921 88.1237 72.921C87.493 72.921 87.0306 72.9945 86.7364 73.1417C86.4421 73.2887 86.295 73.4815 86.295 73.7196C86.295 73.986 86.4561 74.1716 86.7785 74.2767C87.1008 74.3818 87.6332 74.4903 88.3759 74.6024C89.3148 74.7426 90.0924 74.9037 90.709 75.0859C91.3256 75.268 91.8616 75.6008 92.3169 76.0843C92.7723 76.5677 93 77.2439 93 78.1126C93 78.8272 92.7829 79.4683 92.3484 80.0358C91.9141 80.6034 91.273 81.0482 90.4253 81.3705C89.5774 81.6929 88.558 81.854 87.367 81.854Z" fill="white"/>
<path fill-rule="evenodd" clip-rule="evenodd" d="M34.9939 7.13441C37.0136 6.50093 39.0253 6.01702 41.0289 5.69029V5.23884C41.0289 2.35749 43.3864 0 46.2678 0H47.4137C50.2951 0 52.6525 2.35749 52.6525 5.23884V5.61728C54.6891 5.93866 56.7162 6.44124 58.7337 7.13441C73.8996 12.248 85.3702 27.3595 85.3702 43.4501H7.91293C9.09834 26.3564 20.1089 12.1533 34.9939 7.13441Z" fill="#165049"/>
<path fill-rule="evenodd" clip-rule="evenodd" d="M4.13797 48.5951C4.13964 50.3554 4.30597 50.6941 5.30304 51.8174C5.93474 52.529 6.81137 52.9345 8.07988 52.9596C9.11357 52.9801 15.539 53.1411 15.8994 52.8113L16.4042 51.465C17.0451 49.5567 19.2957 47.3884 21.3269 46.7316C22.5127 46.3483 23.0452 46.0638 24.5925 46.0713C27.8102 46.0866 30.6119 47.9347 32.0509 50.2101L32.7932 51.4303C33.0115 51.7787 32.9033 51.7309 33.0082 52.1708L33.3393 52.8879C34.7666 53.0284 49.8878 52.9169 52.6916 52.9169C53.9295 52.9169 58.3456 53.0691 59.223 52.8248C59.4633 52.3431 59.7425 50.3322 61.3765 48.8656C62.2744 48.0598 63.3448 47.0724 64.5337 46.6888C67.1167 45.8556 68.6109 45.8494 71.0915 46.7094C71.5435 46.8661 72.0201 47.131 72.3796 47.3849L72.9552 47.7838C75.602 49.6294 75.5941 50.9842 76.5904 52.8962C78.197 52.9236 85.0129 53.1057 85.8841 52.6885C86.2258 52.5247 86.9882 52.0127 87.2475 51.7694C89.3222 49.823 89.3029 46.8635 87.7426 45.3566C86.8503 44.4947 85.9939 44.0259 84.6174 44.0259L9.17635 44.0272C6.44719 44.0272 4.13595 46.0438 4.13797 48.5951Z" fill="#165049"/>
<path fill-rule="evenodd" clip-rule="evenodd" d="M31.3043 55.0491C31.3043 50.6508 27.6818 47.7196 23.2775 48.2819C22.8575 48.3355 22.7516 48.449 22.3043 48.5934C17.4722 50.1523 15.8341 57.0981 20.7419 60.6473C21.2239 60.996 22.647 61.631 22.8526 61.6658C24.3056 61.9115 26.0387 61.8166 27.3873 61.214C29.6311 60.2114 31.3043 57.6789 31.3043 55.0491Z" fill="#165049"/>
<path fill-rule="evenodd" clip-rule="evenodd" d="M74.6471 55.1581C74.6471 53.1742 73.9775 51.5642 72.5711 50.1463C68.4501 45.9922 60.9655 48.9517 61.0655 55.0492C61.1291 58.936 64.0865 61.7199 67.7804 61.7428C69.6473 61.7545 71.1537 61.1357 72.557 59.831C72.9123 59.5008 73.0093 59.424 73.3135 58.9366C74.0881 57.6956 74.6471 56.6831 74.6471 55.1581Z" fill="#165049"/>
<path fill-rule="evenodd" clip-rule="evenodd" d="M50.0391 43.5707C50.1649 43.2522 50.315 42.9556 50.4485 42.6918C51.1075 41.3913 51.002 41.6999 50.9709 40.6624C50.9161 38.8225 53.19 36.7364 54.8088 36.2788C57.8013 35.4328 58.422 32.3838 59.2966 29.6981L63.538 17.4107C63.8129 16.6029 64.0745 16.3417 64.0745 15.2907C63.5714 15.4251 63.6113 15.5298 63.393 16.0851C63.2134 16.5419 63.1591 16.693 62.9785 17.146L58.7614 27.6872C58.4814 28.3909 58.2434 29.0589 57.9409 29.8182C57.7044 30.412 57.4131 31.5558 56.5857 31.3643C55.6759 31.1536 56.2081 29.7645 56.4407 29.2036L59.0143 22.9224C59.738 21.1143 62.3035 16.0354 62.3035 14.4052C61.7178 14.5615 61.8149 14.6072 61.6146 15.1923C61.2451 16.2718 60.6872 17.2032 60.2332 18.2381L58.4645 22.3725C57.8093 23.8412 55.4311 29.5146 54.7769 30.4914C53.9866 30.4914 52.9514 30.6028 53.8359 28.8128C55.215 26.0214 57.2669 21.0313 58.5287 18.0094C59.0664 16.7218 60.2374 14.8763 60.2374 13.5198C59.6999 13.6632 59.7414 13.8919 59.4964 14.4021L53.0108 28.4302C52.4511 29.5491 52.1978 29.5128 51.235 28.8681C51.235 27.9207 51.6709 27.4057 52.0221 26.7035C53.9752 22.7978 55.7576 18.7434 57.7292 14.8484C58.1405 14.036 58.1925 13.3527 58.4664 12.7819C57.7056 12.985 57.5256 13.7768 57.1875 14.4544L55.1234 18.2937C53.4825 21.532 51.5628 24.6404 49.9566 27.8848C49.34 29.1299 48.2695 30.335 48.6099 32.3781C48.8807 34.0037 50.1755 34.3957 49.6547 37.0279C49.1371 39.6444 49.0572 39.2172 48.1166 39.9173C47.7849 40.164 46.916 42.1705 46.3148 43.5707H50.0391ZM32.4765 43.5707C32.6817 43.0454 32.9564 42.5468 33.1469 42.0668C33.521 41.1238 33.7997 40.3541 34.1788 39.4093C34.5053 38.5952 34.8391 37.4471 35.4 36.9412C36.0529 36.3519 36.9667 36.2158 37.8998 35.8989C41.411 34.706 44.0188 32.4075 45.3969 28.9331C46.0776 27.2168 46.4647 25.152 46.8477 23.1526C47.2536 21.0326 47.1363 18.5933 46.835 16.4439C46.5613 14.492 45.7785 12.4968 43.4629 12.6953C40.4786 12.9512 36.9199 16.8138 35.3255 19.157C33.0924 22.4389 30.9225 25.0047 31.4326 29.4849C31.7097 31.92 32.1713 32.8916 33.1392 35.0101C33.6946 36.2254 33.207 36.8931 32.7386 37.8216C31.2123 40.8458 30.4932 42.5822 29.997 43.5707H32.4765Z" fill="white"/>
</svg>
