<svg width="18" height="20" viewBox="0 0 18 20" fill="none" xmlns="http://www.w3.org/2000/svg">
<path d="M14.54 6.30989C15.8986 6.30989 17 5.20851 17 3.84989C17 2.49127 15.8986 1.38989 14.54 1.38989C13.1814 1.38989 12.08 2.49127 12.08 3.84989C12.08 5.20851 13.1814 6.30989 14.54 6.30989Z" stroke="white" stroke-width="1.5" stroke-miterlimit="10" stroke-linecap="round" stroke-linejoin="round"/>
<path d="M5.92 3.84989C5.92 2.48989 4.82001 1.38989 3.46001 1.38989C2.10001 1.38989 1 2.48989 1 3.84989C1 5.20989 2.10001 6.30989 3.46001 6.30989" stroke="white" stroke-width="1.5" stroke-miterlimit="10" stroke-linecap="round" stroke-linejoin="round"/>
<path d="M14.54 18.62C15.9 18.62 17 17.52 17 16.16C17 14.8 15.9 13.7 14.54 13.7C13.18 13.7 12.08 14.8 12.08 16.16" stroke="white" stroke-width="1.5" stroke-miterlimit="10" stroke-linecap="round" stroke-linejoin="round"/>
<path d="M3.46001 18.6099C4.81863 18.6099 5.92 17.5086 5.92 16.1499C5.92 14.7913 4.81863 13.6899 3.46001 13.6899C2.10139 13.6899 1 14.7913 1 16.1499C1 17.5086 2.10139 18.6099 3.46001 18.6099Z" stroke="white" stroke-width="1.5" stroke-miterlimit="10" stroke-linecap="round" stroke-linejoin="round"/>
</svg>
